%TF.GenerationSoftware,KiCad,Pcbnew,6.0.8*%
%TF.CreationDate,2022-12-19T15:39:34+01:00*%
%TF.ProjectId,excavator_ram_controller,65786361-7661-4746-9f72-5f72616d5f63,rev?*%
%TF.SameCoordinates,Original*%
%TF.FileFunction,Copper,L1,Top*%
%TF.FilePolarity,Positive*%
%FSLAX46Y46*%
G04 Gerber Fmt 4.6, Leading zero omitted, Abs format (unit mm)*
G04 Created by KiCad (PCBNEW 6.0.8) date 2022-12-19 15:39:34*
%MOMM*%
%LPD*%
G01*
G04 APERTURE LIST*
G04 Aperture macros list*
%AMRoundRect*
0 Rectangle with rounded corners*
0 $1 Rounding radius*
0 $2 $3 $4 $5 $6 $7 $8 $9 X,Y pos of 4 corners*
0 Add a 4 corners polygon primitive as box body*
4,1,4,$2,$3,$4,$5,$6,$7,$8,$9,$2,$3,0*
0 Add four circle primitives for the rounded corners*
1,1,$1+$1,$2,$3*
1,1,$1+$1,$4,$5*
1,1,$1+$1,$6,$7*
1,1,$1+$1,$8,$9*
0 Add four rect primitives between the rounded corners*
20,1,$1+$1,$2,$3,$4,$5,0*
20,1,$1+$1,$4,$5,$6,$7,0*
20,1,$1+$1,$6,$7,$8,$9,0*
20,1,$1+$1,$8,$9,$2,$3,0*%
%AMOutline4P*
0 Free polygon, 4 corners , with rotation*
0 The origin of the aperture is its center*
0 number of corners: always 4*
0 $1 to $8 corner X, Y*
0 $9 Rotation angle, in degrees counterclockwise*
0 create outline with 4 corners*
4,1,4,$1,$2,$3,$4,$5,$6,$7,$8,$1,$2,$9*%
G04 Aperture macros list end*
%TA.AperFunction,SMDPad,CuDef*%
%ADD10R,3.500000X1.800000*%
%TD*%
%TA.AperFunction,ComponentPad*%
%ADD11RoundRect,0.250000X-1.125000X-1.125000X1.125000X-1.125000X1.125000X1.125000X-1.125000X1.125000X0*%
%TD*%
%TA.AperFunction,ComponentPad*%
%ADD12Outline4P,-0.660000X-1.250000X0.660000X-1.250000X0.340000X1.250000X-0.340000X1.250000X150.000000*%
%TD*%
%TA.AperFunction,ComponentPad*%
%ADD13Outline4P,-0.660000X-1.250000X0.660000X-1.250000X0.340000X1.250000X-0.340000X1.250000X135.000000*%
%TD*%
%TA.AperFunction,ComponentPad*%
%ADD14Outline4P,-0.660000X-1.250000X0.660000X-1.250000X0.340000X1.250000X-0.340000X1.250000X120.000000*%
%TD*%
%TA.AperFunction,ComponentPad*%
%ADD15Outline4P,-0.660000X-1.250000X0.660000X-1.250000X0.340000X1.250000X-0.340000X1.250000X75.000000*%
%TD*%
%TA.AperFunction,ComponentPad*%
%ADD16Outline4P,-0.660000X-1.250000X0.660000X-1.250000X0.340000X1.250000X-0.340000X1.250000X45.000000*%
%TD*%
%TA.AperFunction,ComponentPad*%
%ADD17Outline4P,-0.660000X-1.250000X0.660000X-1.250000X0.340000X1.250000X-0.340000X1.250000X30.000000*%
%TD*%
%TA.AperFunction,ComponentPad*%
%ADD18Outline4P,-0.660000X-1.250000X0.660000X-1.250000X0.340000X1.250000X-0.340000X1.250000X330.000000*%
%TD*%
%TA.AperFunction,ComponentPad*%
%ADD19Outline4P,-0.660000X-1.250000X0.660000X-1.250000X0.340000X1.250000X-0.340000X1.250000X315.000000*%
%TD*%
%TA.AperFunction,ComponentPad*%
%ADD20Outline4P,-0.660000X-1.250000X0.660000X-1.250000X0.340000X1.250000X-0.340000X1.250000X300.000000*%
%TD*%
%TA.AperFunction,ComponentPad*%
%ADD21Outline4P,-0.660000X-1.250000X0.660000X-1.250000X0.340000X1.250000X-0.340000X1.250000X255.000000*%
%TD*%
%TA.AperFunction,ComponentPad*%
%ADD22Outline4P,-0.660000X-1.250000X0.660000X-1.250000X0.340000X1.250000X-0.340000X1.250000X225.000000*%
%TD*%
%TA.AperFunction,ComponentPad*%
%ADD23Outline4P,-0.660000X-1.250000X0.660000X-1.250000X0.340000X1.250000X-0.340000X1.250000X210.000000*%
%TD*%
%TA.AperFunction,ComponentPad*%
%ADD24Outline4P,-0.660000X-1.250000X0.660000X-1.250000X0.340000X1.250000X-0.340000X1.250000X165.000000*%
%TD*%
%TA.AperFunction,ComponentPad*%
%ADD25Outline4P,-0.660000X-1.250000X0.660000X-1.250000X0.340000X1.250000X-0.340000X1.250000X345.000000*%
%TD*%
%TA.AperFunction,Conductor*%
%ADD26C,0.500000*%
%TD*%
G04 APERTURE END LIST*
D10*
%TO.P,D2,1,K*%
%TO.N,Net-(D1-Pad1)*%
X32500000Y-20750000D03*
%TO.P,D2,2,A*%
%TO.N,Net-(D2-Pad2)*%
X27500000Y-20750000D03*
%TD*%
D11*
%TO.P,L,1,Pin_1*%
%TO.N,Net-(D2-Pad2)*%
X27500000Y-17000000D03*
%TD*%
%TO.P,R,1,Pin_1*%
%TO.N,Net-(D1-Pad2)*%
X32500000Y-17000000D03*
%TD*%
%TO.P,V,1,Pin_1*%
%TO.N,Net-(J2-Pad1)*%
X30000000Y-43000000D03*
%TD*%
%TO.P,M,1,Pin_1*%
%TO.N,Net-(J1-Pad1)*%
X34500000Y-43000000D03*
%TD*%
D12*
%TO.P,SW1,1,1*%
%TO.N,unconnected-(SW1-Pad1)*%
X32875000Y-25020353D03*
D13*
%TO.P,SW1,2,2*%
%TO.N,Net-(J2-Pad1)*%
X34065864Y-25934137D03*
D14*
%TO.P,SW1,3,3*%
X34979647Y-27125000D03*
D15*
%TO.P,SW1,4,4*%
%TO.N,Net-(J3-Pad1)*%
X35554074Y-31488209D03*
D16*
%TO.P,SW1,5,5*%
X34065863Y-34065864D03*
D17*
%TO.P,SW1,6,6*%
X32875000Y-34979647D03*
D18*
%TO.P,SW1,7,7*%
%TO.N,unconnected-(SW1-Pad7)*%
X27125000Y-34979647D03*
D19*
%TO.P,SW1,8,8*%
%TO.N,Net-(D2-Pad2)*%
X25934136Y-34065863D03*
D20*
%TO.P,SW1,9,9*%
%TO.N,Net-(D1-Pad2)*%
X25020353Y-32875000D03*
D21*
%TO.P,SW1,10,10*%
%TO.N,Net-(D2-Pad2)*%
X24445926Y-28511791D03*
D22*
%TO.P,SW1,11,11*%
%TO.N,Net-(D1-Pad2)*%
X25934137Y-25934136D03*
D23*
%TO.P,SW1,12,12*%
%TO.N,Net-(D1-Pad1)*%
X27125000Y-25020353D03*
D24*
%TO.P,SW1,13,13*%
%TO.N,Net-(J1-Pad1)*%
X31488209Y-24445926D03*
D25*
%TO.P,SW1,14,14*%
X28511791Y-35554074D03*
%TD*%
D11*
%TO.P,H,1,Pin_1*%
%TO.N,Net-(J3-Pad1)*%
X25500000Y-43000000D03*
%TD*%
D26*
%TO.N,Net-(J3-Pad1)*%
X33000000Y-35196153D02*
X25500000Y-42339379D01*
X25500000Y-42339379D02*
X25500000Y-43000000D01*
X34242640Y-34242641D02*
X33000000Y-35196153D01*
X35795555Y-31552914D02*
X34242640Y-34242641D01*
%TO.N,Net-(J2-Pad1)*%
X34242641Y-25757360D02*
X35196153Y-27000000D01*
%TO.N,Net-(D1-Pad1)*%
X27000000Y-24803847D02*
X27000000Y-22750000D01*
X27000000Y-22750000D02*
X27500000Y-22250000D01*
X27500000Y-22250000D02*
X31500000Y-22250000D01*
X31500000Y-22250000D02*
X32500000Y-21250000D01*
X32500000Y-21250000D02*
X32500000Y-20750000D01*
%TO.N,Net-(D2-Pad2)*%
X27500000Y-20750000D02*
X23000000Y-26500000D01*
X23000000Y-26500000D02*
X22750000Y-28000000D01*
X22750000Y-28000000D02*
X24204445Y-28447086D01*
X25757359Y-34242640D02*
X27000000Y-33000000D01*
X27000000Y-33000000D02*
X26000000Y-29000000D01*
X26000000Y-29000000D02*
X24204445Y-28447086D01*
X27500000Y-17000000D02*
X27500000Y-19987500D01*
%TD*%
%TA.AperFunction,Conductor*%
%TO.N,Net-(J1-Pad1)*%
G36*
X35970018Y-14010000D02*
G01*
X35984852Y-14012310D01*
X35984855Y-14012310D01*
X35993724Y-14013691D01*
X36002626Y-14012527D01*
X36002750Y-14012511D01*
X36033192Y-14012240D01*
X36040621Y-14013077D01*
X36095264Y-14019234D01*
X36122771Y-14025513D01*
X36199853Y-14052485D01*
X36225274Y-14064727D01*
X36294426Y-14108178D01*
X36316485Y-14125770D01*
X36374230Y-14183515D01*
X36391822Y-14205574D01*
X36435273Y-14274726D01*
X36447515Y-14300147D01*
X36474487Y-14377228D01*
X36480766Y-14404736D01*
X36487018Y-14460226D01*
X36486923Y-14475868D01*
X36487800Y-14475879D01*
X36487690Y-14484851D01*
X36486309Y-14493724D01*
X36487473Y-14502626D01*
X36487473Y-14502628D01*
X36490436Y-14525283D01*
X36491500Y-14541621D01*
X36491500Y-19950633D01*
X36490000Y-19970018D01*
X36487690Y-19984851D01*
X36487690Y-19984855D01*
X36486309Y-19993724D01*
X36487792Y-20005062D01*
X36488535Y-20012406D01*
X36490542Y-20040472D01*
X36499679Y-20168224D01*
X36500000Y-20177212D01*
X36500000Y-21500000D01*
X37822786Y-21500000D01*
X37831776Y-21500321D01*
X37959535Y-21509459D01*
X37971446Y-21510884D01*
X37982638Y-21512767D01*
X37982641Y-21512767D01*
X37987448Y-21513576D01*
X37993456Y-21513649D01*
X37993724Y-21513691D01*
X37993993Y-21513656D01*
X38000000Y-21513729D01*
X38004820Y-21513039D01*
X38009671Y-21512723D01*
X38009690Y-21513010D01*
X38036446Y-21512607D01*
X38088119Y-21518429D01*
X38095265Y-21519234D01*
X38122772Y-21525513D01*
X38199853Y-21552485D01*
X38225274Y-21564727D01*
X38294426Y-21608178D01*
X38316485Y-21625770D01*
X38374230Y-21683515D01*
X38391822Y-21705574D01*
X38435273Y-21774726D01*
X38447515Y-21800147D01*
X38474487Y-21877228D01*
X38480766Y-21904736D01*
X38487018Y-21960226D01*
X38486923Y-21975868D01*
X38487800Y-21975879D01*
X38487690Y-21984851D01*
X38486309Y-21993724D01*
X38487473Y-22002626D01*
X38487473Y-22002628D01*
X38490436Y-22025283D01*
X38491500Y-22041621D01*
X38491500Y-37950633D01*
X38490000Y-37970018D01*
X38486309Y-37993724D01*
X38487473Y-38002626D01*
X38487489Y-38002750D01*
X38487760Y-38033192D01*
X38485430Y-38053870D01*
X38480766Y-38095264D01*
X38474487Y-38122771D01*
X38447515Y-38199853D01*
X38435273Y-38225274D01*
X38391822Y-38294426D01*
X38374230Y-38316485D01*
X38316485Y-38374230D01*
X38294426Y-38391822D01*
X38225274Y-38435273D01*
X38199853Y-38447515D01*
X38122771Y-38474487D01*
X38095265Y-38480766D01*
X38085096Y-38481912D01*
X38041446Y-38486830D01*
X38016640Y-38487112D01*
X38012552Y-38486424D01*
X38006544Y-38486351D01*
X38006276Y-38486309D01*
X38006007Y-38486344D01*
X38000000Y-38486271D01*
X37985210Y-38488389D01*
X37976357Y-38489338D01*
X37831776Y-38499679D01*
X37822787Y-38500000D01*
X36500000Y-38500000D01*
X36500000Y-39822786D01*
X36499679Y-39831775D01*
X36495470Y-39890631D01*
X36489988Y-39967275D01*
X36488808Y-39977675D01*
X36487690Y-39984851D01*
X36487690Y-39984855D01*
X36486309Y-39993724D01*
X36487473Y-40002626D01*
X36487473Y-40002628D01*
X36490436Y-40025283D01*
X36491500Y-40041621D01*
X36491500Y-41391662D01*
X36471498Y-41459783D01*
X36417842Y-41506276D01*
X36347568Y-41516380D01*
X36282988Y-41486886D01*
X36258356Y-41457965D01*
X36226937Y-41407193D01*
X36217901Y-41395792D01*
X36103171Y-41281261D01*
X36091760Y-41272249D01*
X35953757Y-41187184D01*
X35940576Y-41181037D01*
X35786290Y-41129862D01*
X35772914Y-41126995D01*
X35678562Y-41117328D01*
X35672145Y-41117000D01*
X34772115Y-41117000D01*
X34756876Y-41121475D01*
X34755671Y-41122865D01*
X34754000Y-41130548D01*
X34754000Y-44864884D01*
X34758475Y-44880123D01*
X34759865Y-44881328D01*
X34767548Y-44882999D01*
X35672095Y-44882999D01*
X35678614Y-44882662D01*
X35774206Y-44872743D01*
X35787600Y-44869851D01*
X35941784Y-44818412D01*
X35954962Y-44812239D01*
X36092807Y-44726937D01*
X36104208Y-44717901D01*
X36218739Y-44603171D01*
X36227751Y-44591760D01*
X36258240Y-44542297D01*
X36311012Y-44494804D01*
X36381083Y-44483380D01*
X36446207Y-44511654D01*
X36485707Y-44570648D01*
X36491500Y-44608413D01*
X36491500Y-45450633D01*
X36490000Y-45470018D01*
X36486309Y-45493724D01*
X36487473Y-45502626D01*
X36487489Y-45502750D01*
X36487760Y-45533192D01*
X36485430Y-45553870D01*
X36480766Y-45595264D01*
X36474487Y-45622771D01*
X36447515Y-45699853D01*
X36435273Y-45725274D01*
X36391822Y-45794426D01*
X36374230Y-45816485D01*
X36316485Y-45874230D01*
X36294426Y-45891822D01*
X36225274Y-45935273D01*
X36199853Y-45947515D01*
X36122772Y-45974487D01*
X36095264Y-45980766D01*
X36039774Y-45987018D01*
X36024132Y-45986923D01*
X36024121Y-45987800D01*
X36015149Y-45987690D01*
X36006276Y-45986309D01*
X35997374Y-45987473D01*
X35997372Y-45987473D01*
X35986385Y-45988910D01*
X35974714Y-45990436D01*
X35958379Y-45991500D01*
X24049367Y-45991500D01*
X24029982Y-45990000D01*
X24015148Y-45987690D01*
X24015145Y-45987690D01*
X24006276Y-45986309D01*
X23997374Y-45987473D01*
X23997250Y-45987489D01*
X23966808Y-45987760D01*
X23946130Y-45985430D01*
X23904736Y-45980766D01*
X23877229Y-45974487D01*
X23800147Y-45947515D01*
X23774726Y-45935273D01*
X23705574Y-45891822D01*
X23683515Y-45874230D01*
X23625770Y-45816485D01*
X23608178Y-45794426D01*
X23564727Y-45725274D01*
X23552485Y-45699853D01*
X23525513Y-45622772D01*
X23519234Y-45595266D01*
X23513170Y-45541451D01*
X23512888Y-45516640D01*
X23513576Y-45512552D01*
X23513729Y-45500000D01*
X23509773Y-45472376D01*
X23508500Y-45454514D01*
X23508500Y-44609289D01*
X23528502Y-44541168D01*
X23582158Y-44494675D01*
X23652432Y-44484571D01*
X23717012Y-44514065D01*
X23741644Y-44542986D01*
X23776522Y-44599348D01*
X23901697Y-44724305D01*
X23907927Y-44728145D01*
X23907928Y-44728146D01*
X24045288Y-44812816D01*
X24052262Y-44817115D01*
X24132005Y-44843564D01*
X24213611Y-44870632D01*
X24213613Y-44870632D01*
X24220139Y-44872797D01*
X24226975Y-44873497D01*
X24226978Y-44873498D01*
X24270031Y-44877909D01*
X24324600Y-44883500D01*
X26675400Y-44883500D01*
X26678646Y-44883163D01*
X26678650Y-44883163D01*
X26774308Y-44873238D01*
X26774312Y-44873237D01*
X26781166Y-44872526D01*
X26787702Y-44870345D01*
X26787704Y-44870345D01*
X26919806Y-44826272D01*
X26948946Y-44816550D01*
X27099348Y-44723478D01*
X27224305Y-44598303D01*
X27276230Y-44514065D01*
X27313275Y-44453968D01*
X27313276Y-44453966D01*
X27317115Y-44447738D01*
X27372797Y-44279861D01*
X27383500Y-44175400D01*
X28116500Y-44175400D01*
X28116837Y-44178646D01*
X28116837Y-44178650D01*
X28126752Y-44274206D01*
X28127474Y-44281166D01*
X28183450Y-44448946D01*
X28276522Y-44599348D01*
X28401697Y-44724305D01*
X28407927Y-44728145D01*
X28407928Y-44728146D01*
X28545288Y-44812816D01*
X28552262Y-44817115D01*
X28632005Y-44843564D01*
X28713611Y-44870632D01*
X28713613Y-44870632D01*
X28720139Y-44872797D01*
X28726975Y-44873497D01*
X28726978Y-44873498D01*
X28770031Y-44877909D01*
X28824600Y-44883500D01*
X31175400Y-44883500D01*
X31178646Y-44883163D01*
X31178650Y-44883163D01*
X31274308Y-44873238D01*
X31274312Y-44873237D01*
X31281166Y-44872526D01*
X31287702Y-44870345D01*
X31287704Y-44870345D01*
X31419806Y-44826272D01*
X31448946Y-44816550D01*
X31599348Y-44723478D01*
X31724305Y-44598303D01*
X31776230Y-44514065D01*
X31813275Y-44453968D01*
X31813276Y-44453966D01*
X31817115Y-44447738D01*
X31872797Y-44279861D01*
X31883500Y-44175400D01*
X31883500Y-44172095D01*
X32617001Y-44172095D01*
X32617338Y-44178614D01*
X32627257Y-44274206D01*
X32630149Y-44287600D01*
X32681588Y-44441784D01*
X32687761Y-44454962D01*
X32773063Y-44592807D01*
X32782099Y-44604208D01*
X32896829Y-44718739D01*
X32908240Y-44727751D01*
X33046243Y-44812816D01*
X33059424Y-44818963D01*
X33213710Y-44870138D01*
X33227086Y-44873005D01*
X33321438Y-44882672D01*
X33327854Y-44883000D01*
X34227885Y-44883000D01*
X34243124Y-44878525D01*
X34244329Y-44877135D01*
X34246000Y-44869452D01*
X34246000Y-43272115D01*
X34241525Y-43256876D01*
X34240135Y-43255671D01*
X34232452Y-43254000D01*
X32635116Y-43254000D01*
X32619877Y-43258475D01*
X32618672Y-43259865D01*
X32617001Y-43267548D01*
X32617001Y-44172095D01*
X31883500Y-44172095D01*
X31883500Y-42727885D01*
X32617000Y-42727885D01*
X32621475Y-42743124D01*
X32622865Y-42744329D01*
X32630548Y-42746000D01*
X34227885Y-42746000D01*
X34243124Y-42741525D01*
X34244329Y-42740135D01*
X34246000Y-42732452D01*
X34246000Y-41135116D01*
X34241525Y-41119877D01*
X34240135Y-41118672D01*
X34232452Y-41117001D01*
X33327905Y-41117001D01*
X33321386Y-41117338D01*
X33225794Y-41127257D01*
X33212400Y-41130149D01*
X33058216Y-41181588D01*
X33045038Y-41187761D01*
X32907193Y-41273063D01*
X32895792Y-41282099D01*
X32781261Y-41396829D01*
X32772249Y-41408240D01*
X32687184Y-41546243D01*
X32681037Y-41559424D01*
X32629862Y-41713710D01*
X32626995Y-41727086D01*
X32617328Y-41821438D01*
X32617000Y-41827855D01*
X32617000Y-42727885D01*
X31883500Y-42727885D01*
X31883500Y-41824600D01*
X31883163Y-41821350D01*
X31873238Y-41725692D01*
X31873237Y-41725688D01*
X31872526Y-41718834D01*
X31816550Y-41551054D01*
X31723478Y-41400652D01*
X31598303Y-41275695D01*
X31592072Y-41271854D01*
X31453968Y-41186725D01*
X31453966Y-41186724D01*
X31447738Y-41182885D01*
X31367995Y-41156436D01*
X31286389Y-41129368D01*
X31286387Y-41129368D01*
X31279861Y-41127203D01*
X31273025Y-41126503D01*
X31273022Y-41126502D01*
X31229969Y-41122091D01*
X31175400Y-41116500D01*
X28824600Y-41116500D01*
X28821354Y-41116837D01*
X28821350Y-41116837D01*
X28725692Y-41126762D01*
X28725688Y-41126763D01*
X28718834Y-41127474D01*
X28712298Y-41129655D01*
X28712296Y-41129655D01*
X28695928Y-41135116D01*
X28551054Y-41183450D01*
X28400652Y-41276522D01*
X28275695Y-41401697D01*
X28271855Y-41407927D01*
X28271854Y-41407928D01*
X28205443Y-41515667D01*
X28182885Y-41552262D01*
X28127203Y-41720139D01*
X28116500Y-41824600D01*
X28116500Y-44175400D01*
X27383500Y-44175400D01*
X27383500Y-41824600D01*
X27372526Y-41718834D01*
X27368632Y-41707162D01*
X27366044Y-41636216D01*
X27401255Y-41576045D01*
X29569647Y-39510803D01*
X32430886Y-36785672D01*
X32494008Y-36753176D01*
X32564679Y-36759964D01*
X32603792Y-36784834D01*
X32634495Y-36813515D01*
X32642511Y-36817556D01*
X32642512Y-36817556D01*
X32756544Y-36875033D01*
X32756546Y-36875034D01*
X32764564Y-36879075D01*
X32773393Y-36880703D01*
X32773395Y-36880704D01*
X32809241Y-36887315D01*
X32907807Y-36905494D01*
X32989046Y-36897170D01*
X33043856Y-36891555D01*
X33043858Y-36891554D01*
X33052705Y-36890648D01*
X33060955Y-36887315D01*
X33146362Y-36852809D01*
X33146369Y-36852806D01*
X33150452Y-36851156D01*
X33154267Y-36848954D01*
X33154272Y-36848951D01*
X34354200Y-36156171D01*
X34358049Y-36153949D01*
X34441708Y-36088438D01*
X34453511Y-36072047D01*
X34526821Y-35970234D01*
X34528214Y-35971237D01*
X34570185Y-35927731D01*
X34596041Y-35917712D01*
X34595998Y-35917598D01*
X34699330Y-35878243D01*
X34732117Y-35865756D01*
X34816311Y-35802310D01*
X35802310Y-34816311D01*
X35866163Y-34731379D01*
X35917783Y-34595174D01*
X35918481Y-34586220D01*
X35928402Y-34458907D01*
X35928402Y-34458904D01*
X35929099Y-34449957D01*
X35899203Y-34307400D01*
X35830497Y-34178965D01*
X35795625Y-34143223D01*
X35759946Y-34106653D01*
X35759941Y-34106649D01*
X35756876Y-34103507D01*
X35458130Y-33872561D01*
X35416469Y-33815073D01*
X35412502Y-33744188D01*
X35426074Y-33709875D01*
X35767200Y-33119028D01*
X35925883Y-32844180D01*
X35977265Y-32795187D01*
X36046979Y-32781751D01*
X36082801Y-32790599D01*
X36428076Y-32932165D01*
X36428085Y-32932168D01*
X36432180Y-32933847D01*
X36436470Y-32934935D01*
X36526545Y-32957779D01*
X36526548Y-32957779D01*
X36535178Y-32959968D01*
X36544080Y-32959665D01*
X36544081Y-32959665D01*
X36572423Y-32958700D01*
X36680752Y-32955012D01*
X36689274Y-32952202D01*
X36810557Y-32912209D01*
X36810560Y-32912207D01*
X36819083Y-32909397D01*
X36939052Y-32826791D01*
X37031012Y-32713834D01*
X37072204Y-32616792D01*
X37094099Y-32535080D01*
X37431957Y-31274178D01*
X37431958Y-31274172D01*
X37433105Y-31269892D01*
X37445937Y-31164412D01*
X37422539Y-31020645D01*
X37359731Y-30889225D01*
X37262561Y-30780716D01*
X37138842Y-30703840D01*
X37037355Y-30675302D01*
X37032995Y-30674712D01*
X34437339Y-30323498D01*
X34437332Y-30323497D01*
X34434728Y-30323145D01*
X34432112Y-30323011D01*
X34432103Y-30323010D01*
X34431498Y-30322979D01*
X34431495Y-30322979D01*
X34424802Y-30322636D01*
X34281039Y-30346049D01*
X34149626Y-30408871D01*
X34041125Y-30506052D01*
X33964263Y-30629778D01*
X33961283Y-30638262D01*
X33960669Y-30640554D01*
X33960667Y-30640560D01*
X33753611Y-31413306D01*
X33749701Y-31427897D01*
X33747938Y-31437670D01*
X33752909Y-31583242D01*
X33798537Y-31721569D01*
X33881157Y-31841529D01*
X33994123Y-31933479D01*
X34002154Y-31937509D01*
X34004365Y-31938415D01*
X34004366Y-31938416D01*
X34431123Y-32113391D01*
X34486563Y-32157740D01*
X34509226Y-32225022D01*
X34492442Y-32292972D01*
X34396691Y-32458817D01*
X34245476Y-32720730D01*
X34231993Y-32744083D01*
X34180611Y-32793076D01*
X34110897Y-32806512D01*
X34045812Y-32780769D01*
X33681103Y-32498831D01*
X33681093Y-32498824D01*
X33679013Y-32497216D01*
X33670672Y-32491812D01*
X33534462Y-32440207D01*
X33525509Y-32439510D01*
X33525508Y-32439510D01*
X33398191Y-32429602D01*
X33398189Y-32429602D01*
X33389244Y-32428906D01*
X33246690Y-32458817D01*
X33238779Y-32463050D01*
X33238776Y-32463051D01*
X33218884Y-32473695D01*
X33118261Y-32527536D01*
X33111439Y-32533393D01*
X32533387Y-33111446D01*
X32526973Y-33119028D01*
X32523820Y-33124948D01*
X32523816Y-33124953D01*
X32499131Y-33171294D01*
X32449451Y-33222013D01*
X32416590Y-33234752D01*
X32357836Y-33248478D01*
X32349730Y-33252371D01*
X31641763Y-33661116D01*
X31633606Y-33666779D01*
X31534185Y-33773230D01*
X31530146Y-33781244D01*
X31530146Y-33781245D01*
X31484131Y-33872561D01*
X31468638Y-33903306D01*
X31467011Y-33912133D01*
X31467010Y-33912136D01*
X31464120Y-33927815D01*
X31442234Y-34046551D01*
X31443149Y-34055474D01*
X31443149Y-34055477D01*
X31448075Y-34103507D01*
X31457094Y-34191448D01*
X31459924Y-34199977D01*
X31682587Y-34732117D01*
X31849945Y-35132086D01*
X31857788Y-35202648D01*
X31826237Y-35266249D01*
X31820609Y-35271961D01*
X25720659Y-41081739D01*
X25657536Y-41114236D01*
X25633760Y-41116500D01*
X24324600Y-41116500D01*
X24321354Y-41116837D01*
X24321350Y-41116837D01*
X24225692Y-41126762D01*
X24225688Y-41126763D01*
X24218834Y-41127474D01*
X24212298Y-41129655D01*
X24212296Y-41129655D01*
X24195928Y-41135116D01*
X24051054Y-41183450D01*
X23900652Y-41276522D01*
X23775695Y-41401697D01*
X23771855Y-41407927D01*
X23771854Y-41407928D01*
X23741760Y-41456750D01*
X23688988Y-41504243D01*
X23618916Y-41515667D01*
X23553793Y-41487393D01*
X23514293Y-41428399D01*
X23508500Y-41390634D01*
X23508500Y-40053250D01*
X23510246Y-40032345D01*
X23512770Y-40017344D01*
X23512770Y-40017341D01*
X23513576Y-40012552D01*
X23513729Y-40000000D01*
X23511611Y-39985210D01*
X23510662Y-39976357D01*
X23500321Y-39831776D01*
X23500000Y-39822787D01*
X23500000Y-38500000D01*
X22177214Y-38500000D01*
X22168225Y-38499679D01*
X22160396Y-38499119D01*
X22040465Y-38490541D01*
X22028554Y-38489116D01*
X22017362Y-38487233D01*
X22017359Y-38487233D01*
X22012552Y-38486424D01*
X22006544Y-38486351D01*
X22006276Y-38486309D01*
X22006007Y-38486344D01*
X22000000Y-38486271D01*
X21995180Y-38486961D01*
X21990329Y-38487277D01*
X21990310Y-38486990D01*
X21963554Y-38487393D01*
X21904735Y-38480766D01*
X21877228Y-38474487D01*
X21800147Y-38447515D01*
X21774726Y-38435273D01*
X21705574Y-38391822D01*
X21683515Y-38374230D01*
X21625770Y-38316485D01*
X21608178Y-38294426D01*
X21564727Y-38225274D01*
X21552485Y-38199853D01*
X21525513Y-38122772D01*
X21519234Y-38095266D01*
X21513170Y-38041451D01*
X21512888Y-38016640D01*
X21513576Y-38012552D01*
X21513729Y-38000000D01*
X21509773Y-37972376D01*
X21508500Y-37954514D01*
X21508500Y-37300416D01*
X28306821Y-37300416D01*
X28307199Y-37316292D01*
X28308232Y-37317818D01*
X28315217Y-37321419D01*
X28725916Y-37431466D01*
X28734608Y-37433150D01*
X28826738Y-37444358D01*
X28844368Y-37444003D01*
X28970344Y-37423499D01*
X28987303Y-37418186D01*
X29102397Y-37363180D01*
X29117181Y-37353323D01*
X29212213Y-37268222D01*
X29223632Y-37254616D01*
X29291003Y-37146193D01*
X29298105Y-37130075D01*
X29323016Y-37041492D01*
X29324798Y-37032889D01*
X29452684Y-36087748D01*
X29450293Y-36072047D01*
X29446276Y-36067487D01*
X29445933Y-36067337D01*
X28708893Y-35869847D01*
X28693017Y-35870225D01*
X28691491Y-35871258D01*
X28687890Y-35878243D01*
X28306821Y-37300416D01*
X21508500Y-37300416D01*
X21508500Y-27990843D01*
X21986390Y-27990843D01*
X21987151Y-27998125D01*
X21988527Y-28011300D01*
X21989057Y-28030569D01*
X21988048Y-28051112D01*
X21990337Y-28063475D01*
X21997784Y-28103706D01*
X21999207Y-28113550D01*
X22004765Y-28166756D01*
X22007179Y-28173663D01*
X22011551Y-28186174D01*
X22016501Y-28204809D01*
X22020244Y-28225028D01*
X22038166Y-28265687D01*
X22041815Y-28273965D01*
X22045463Y-28283216D01*
X22060699Y-28326813D01*
X22060703Y-28326821D01*
X22063116Y-28333726D01*
X22067053Y-28339891D01*
X22067055Y-28339895D01*
X22074189Y-28351066D01*
X22083290Y-28368057D01*
X22091584Y-28386873D01*
X22095995Y-28392707D01*
X22095999Y-28392715D01*
X22123841Y-28429544D01*
X22129523Y-28437711D01*
X22154371Y-28476621D01*
X22154374Y-28476625D01*
X22158312Y-28482791D01*
X22163567Y-28487890D01*
X22173069Y-28497111D01*
X22185833Y-28511550D01*
X22193826Y-28522123D01*
X22193829Y-28522126D01*
X22198243Y-28527965D01*
X22239463Y-28562080D01*
X22246850Y-28568703D01*
X22285248Y-28605961D01*
X22302913Y-28616507D01*
X22318658Y-28627624D01*
X22328859Y-28636068D01*
X22328864Y-28636071D01*
X22334500Y-28640736D01*
X22374884Y-28660706D01*
X22382447Y-28664446D01*
X22391180Y-28669203D01*
X22432290Y-28693745D01*
X22432298Y-28693749D01*
X22437114Y-28696624D01*
X22442367Y-28698602D01*
X22442370Y-28698604D01*
X22443996Y-28699216D01*
X22447572Y-28700563D01*
X22449425Y-28701133D01*
X22449438Y-28701137D01*
X22458764Y-28704003D01*
X22477592Y-28711495D01*
X22484988Y-28715152D01*
X22537187Y-28763275D01*
X22555115Y-28825564D01*
X22555139Y-28826745D01*
X22554063Y-28835588D01*
X22577461Y-28979355D01*
X22640269Y-29110775D01*
X22737439Y-29219284D01*
X22861158Y-29296160D01*
X22962645Y-29324698D01*
X22967004Y-29325288D01*
X22967005Y-29325288D01*
X25296511Y-29640490D01*
X25361334Y-29669445D01*
X25401854Y-29734792D01*
X25803748Y-31342367D01*
X25800865Y-31413306D01*
X25760087Y-31471424D01*
X25730146Y-31489162D01*
X24656478Y-31938416D01*
X23377218Y-32473695D01*
X23285917Y-32528054D01*
X23186485Y-32634495D01*
X23120925Y-32764564D01*
X23094506Y-32907807D01*
X23109352Y-33052705D01*
X23112685Y-33060954D01*
X23112685Y-33060955D01*
X23147191Y-33146362D01*
X23147194Y-33146369D01*
X23148844Y-33150452D01*
X23151046Y-33154267D01*
X23151049Y-33154272D01*
X23504618Y-33766671D01*
X23846051Y-34358049D01*
X23911562Y-34441708D01*
X23918792Y-34446914D01*
X23918793Y-34446915D01*
X24029766Y-34526821D01*
X24028763Y-34528214D01*
X24072269Y-34570185D01*
X24082288Y-34596041D01*
X24082402Y-34595998D01*
X24134244Y-34732117D01*
X24197690Y-34816311D01*
X25183689Y-35802310D01*
X25268621Y-35866163D01*
X25404338Y-35917598D01*
X25404826Y-35917783D01*
X25404217Y-35919390D01*
X25457095Y-35948662D01*
X25473472Y-35971053D01*
X25473571Y-35970982D01*
X25558877Y-36089045D01*
X25641952Y-36153950D01*
X25645763Y-36156150D01*
X26845703Y-36848936D01*
X26845708Y-36848939D01*
X26849549Y-36851156D01*
X26948113Y-36890852D01*
X27093037Y-36905460D01*
X27092884Y-36906981D01*
X27152183Y-36921731D01*
X27173464Y-36938852D01*
X27173581Y-36938709D01*
X27279529Y-37024965D01*
X27294613Y-37034055D01*
X27379319Y-37070010D01*
X27387620Y-37072869D01*
X27793945Y-37181744D01*
X27809821Y-37181366D01*
X27811347Y-37180333D01*
X27814948Y-37173348D01*
X28301644Y-35356972D01*
X28827564Y-35356972D01*
X28827942Y-35372848D01*
X28828975Y-35374374D01*
X28835960Y-35377975D01*
X29506288Y-35557589D01*
X29520711Y-35557245D01*
X29526147Y-35544817D01*
X29676000Y-34437328D01*
X29676486Y-34432097D01*
X29676517Y-34431507D01*
X29675781Y-34418196D01*
X29654911Y-34290050D01*
X29649598Y-34273094D01*
X29594579Y-34158001D01*
X29584723Y-34143223D01*
X29499614Y-34048201D01*
X29485996Y-34036774D01*
X29375864Y-33968356D01*
X29363595Y-33962477D01*
X29359250Y-33961134D01*
X29229637Y-33926404D01*
X29213761Y-33926782D01*
X29212235Y-33927815D01*
X29208634Y-33934800D01*
X28827564Y-35356972D01*
X28301644Y-35356972D01*
X28332186Y-35242989D01*
X28716761Y-33807733D01*
X28716383Y-33791857D01*
X28715349Y-33790330D01*
X28708368Y-33786731D01*
X28574572Y-33750880D01*
X28569461Y-33749737D01*
X28568872Y-33749630D01*
X28555580Y-33748669D01*
X28503598Y-33750443D01*
X28434834Y-33732776D01*
X28407375Y-33710690D01*
X28370360Y-33671205D01*
X28370359Y-33671204D01*
X28365654Y-33666185D01*
X28358230Y-33661112D01*
X27793463Y-33335044D01*
X27744471Y-33283663D01*
X27731035Y-33213949D01*
X27733105Y-33200266D01*
X27740634Y-33164071D01*
X27741229Y-33161357D01*
X27757311Y-33091777D01*
X27757311Y-33091774D01*
X27758959Y-33084645D01*
X27758924Y-33077580D01*
X27759201Y-33074827D01*
X27759206Y-33074778D01*
X27760640Y-33067885D01*
X27758512Y-32989231D01*
X27758468Y-32986452D01*
X27758103Y-32913390D01*
X27758075Y-32907777D01*
X27756041Y-32896788D01*
X27756059Y-32896785D01*
X27756003Y-32896475D01*
X27755857Y-32891080D01*
X27753982Y-32884007D01*
X27753981Y-32884003D01*
X27734333Y-32809903D01*
X27733886Y-32808169D01*
X26751092Y-28876993D01*
X26748005Y-28859462D01*
X26746075Y-28840894D01*
X26746075Y-28840892D01*
X26745318Y-28833613D01*
X26729316Y-28787752D01*
X26726044Y-28776801D01*
X26726000Y-28776624D01*
X26725997Y-28776615D01*
X26725110Y-28773066D01*
X26713575Y-28742516D01*
X26712493Y-28739536D01*
X26698653Y-28699873D01*
X26687049Y-28666615D01*
X26683155Y-28660511D01*
X26682845Y-28659789D01*
X26682767Y-28659639D01*
X26681344Y-28656799D01*
X26681322Y-28656754D01*
X26680946Y-28656102D01*
X26678384Y-28649316D01*
X26635195Y-28585253D01*
X26633463Y-28582613D01*
X26591927Y-28517502D01*
X26586729Y-28512454D01*
X26586284Y-28511854D01*
X26586224Y-28511784D01*
X26584162Y-28509319D01*
X26584078Y-28509216D01*
X26583561Y-28508666D01*
X26579513Y-28502661D01*
X26522784Y-28450288D01*
X26520471Y-28448098D01*
X26501369Y-28429544D01*
X26465052Y-28394269D01*
X26458829Y-28390550D01*
X26458252Y-28390064D01*
X26458188Y-28390017D01*
X26455654Y-28388122D01*
X26455525Y-28388023D01*
X26454877Y-28387594D01*
X26449557Y-28382683D01*
X26443182Y-28379089D01*
X26443178Y-28379086D01*
X26382286Y-28344756D01*
X26379546Y-28343165D01*
X26348471Y-28324593D01*
X26318047Y-28306409D01*
X26318044Y-28306408D01*
X26313231Y-28303531D01*
X26302775Y-28299587D01*
X26302781Y-28299571D01*
X26300812Y-28298822D01*
X26295486Y-28295819D01*
X26271914Y-28289009D01*
X26236317Y-28278725D01*
X26176424Y-28240601D01*
X26167519Y-28229145D01*
X26123935Y-28165864D01*
X26123934Y-28165863D01*
X26118843Y-28158471D01*
X26005877Y-28066521D01*
X25997846Y-28062491D01*
X25987642Y-28058307D01*
X23760786Y-27145271D01*
X23705346Y-27100922D01*
X23682683Y-27033640D01*
X23684300Y-27007981D01*
X23711136Y-26846962D01*
X23736196Y-26790022D01*
X24285778Y-26087778D01*
X24343513Y-26046460D01*
X24414421Y-26042915D01*
X24462066Y-26065747D01*
X26318897Y-27501169D01*
X26318907Y-27501176D01*
X26320987Y-27502784D01*
X26329328Y-27508188D01*
X26465538Y-27559793D01*
X26474491Y-27560490D01*
X26474492Y-27560490D01*
X26601809Y-27570398D01*
X26601811Y-27570398D01*
X26610756Y-27571094D01*
X26753310Y-27541183D01*
X26761221Y-27536950D01*
X26761224Y-27536949D01*
X26819825Y-27505593D01*
X26881739Y-27472464D01*
X26888561Y-27466607D01*
X27466613Y-26888554D01*
X27473027Y-26880972D01*
X27476180Y-26875052D01*
X27476184Y-26875047D01*
X27500869Y-26828706D01*
X27550549Y-26777987D01*
X27583411Y-26765248D01*
X27583484Y-26765231D01*
X27642164Y-26751522D01*
X27650270Y-26747629D01*
X28358237Y-26338884D01*
X28366394Y-26333221D01*
X28465815Y-26226770D01*
X28474432Y-26209670D01*
X28527321Y-26104714D01*
X28527322Y-26104712D01*
X28531362Y-26096694D01*
X28533006Y-26087778D01*
X28551187Y-25989141D01*
X28557766Y-25953449D01*
X28542906Y-25808552D01*
X28540076Y-25800023D01*
X28443197Y-25568493D01*
X30323483Y-25568493D01*
X30324219Y-25581804D01*
X30345089Y-25709950D01*
X30350402Y-25726906D01*
X30405421Y-25841999D01*
X30415277Y-25856777D01*
X30500386Y-25951799D01*
X30514004Y-25963226D01*
X30624136Y-26031644D01*
X30636405Y-26037523D01*
X30640750Y-26038866D01*
X30770363Y-26073596D01*
X30786239Y-26073218D01*
X30787765Y-26072185D01*
X30791366Y-26065200D01*
X31172436Y-24643028D01*
X31172058Y-24627152D01*
X31171025Y-24625626D01*
X31164040Y-24622025D01*
X30493712Y-24442411D01*
X30479289Y-24442755D01*
X30473853Y-24455183D01*
X30324000Y-25562672D01*
X30323514Y-25567903D01*
X30323483Y-25568493D01*
X28443197Y-25568493D01*
X28317413Y-25267883D01*
X27768265Y-23955476D01*
X27758500Y-23906840D01*
X27758500Y-23134500D01*
X27778502Y-23066379D01*
X27832158Y-23019886D01*
X27884500Y-23008500D01*
X30525404Y-23008500D01*
X30593525Y-23028502D01*
X30640018Y-23082158D01*
X30650266Y-23151395D01*
X30547316Y-23912252D01*
X30549707Y-23927953D01*
X30553724Y-23932513D01*
X30554067Y-23932663D01*
X31677587Y-24233710D01*
X31738210Y-24270662D01*
X31769231Y-24334523D01*
X31766683Y-24388028D01*
X31667814Y-24757011D01*
X31283239Y-26192267D01*
X31283617Y-26208143D01*
X31284651Y-26209670D01*
X31291632Y-26213269D01*
X31425428Y-26249120D01*
X31430539Y-26250263D01*
X31431128Y-26250370D01*
X31444420Y-26251331D01*
X31496402Y-26249557D01*
X31565166Y-26267224D01*
X31592625Y-26289310D01*
X31629197Y-26328322D01*
X31634346Y-26333815D01*
X31641770Y-26338888D01*
X31643840Y-26340083D01*
X31643843Y-26340085D01*
X31749308Y-26400975D01*
X32349737Y-26747633D01*
X32358720Y-26751866D01*
X32365252Y-26753379D01*
X32365251Y-26753379D01*
X32416409Y-26765231D01*
X32478258Y-26800091D01*
X32499068Y-26828536D01*
X32524291Y-26875676D01*
X32524295Y-26875682D01*
X32527536Y-26881739D01*
X32533393Y-26888561D01*
X33111446Y-27466613D01*
X33113451Y-27468309D01*
X33113453Y-27468311D01*
X33113903Y-27468692D01*
X33113906Y-27468694D01*
X33119028Y-27473027D01*
X33124948Y-27476180D01*
X33124953Y-27476184D01*
X33171294Y-27500869D01*
X33222013Y-27550549D01*
X33234752Y-27583410D01*
X33248478Y-27642164D01*
X33252371Y-27650270D01*
X33661116Y-28358237D01*
X33666779Y-28366394D01*
X33773230Y-28465815D01*
X33781244Y-28469854D01*
X33781245Y-28469854D01*
X33895286Y-28527321D01*
X33895288Y-28527322D01*
X33903306Y-28531362D01*
X33912133Y-28532989D01*
X33912136Y-28532990D01*
X33954264Y-28540755D01*
X34046551Y-28557766D01*
X34055474Y-28556851D01*
X34055477Y-28556851D01*
X34115046Y-28550741D01*
X34191448Y-28542906D01*
X34199977Y-28540076D01*
X34253927Y-28517502D01*
X34558602Y-28390017D01*
X36622782Y-27526305D01*
X36714083Y-27471946D01*
X36813515Y-27365505D01*
X36879075Y-27235436D01*
X36905494Y-27092193D01*
X36890648Y-26947295D01*
X36887315Y-26939045D01*
X36852809Y-26853638D01*
X36852806Y-26853631D01*
X36851156Y-26849548D01*
X36809925Y-26778133D01*
X36338887Y-25962273D01*
X36153949Y-25641951D01*
X36088438Y-25558292D01*
X35970234Y-25473179D01*
X35971237Y-25471786D01*
X35927731Y-25429815D01*
X35917712Y-25403959D01*
X35917598Y-25404002D01*
X35868922Y-25276196D01*
X35865756Y-25267883D01*
X35802310Y-25183689D01*
X34816311Y-24197690D01*
X34731379Y-24133837D01*
X34595174Y-24082217D01*
X34595783Y-24080610D01*
X34542905Y-24051338D01*
X34526528Y-24028947D01*
X34526429Y-24029018D01*
X34446332Y-23918164D01*
X34446331Y-23918163D01*
X34441123Y-23910955D01*
X34358048Y-23846050D01*
X33546007Y-23377218D01*
X33154297Y-23151064D01*
X33154292Y-23151061D01*
X33150451Y-23148844D01*
X33051887Y-23109148D01*
X32906963Y-23094540D01*
X32907116Y-23093019D01*
X32847817Y-23078269D01*
X32826536Y-23061148D01*
X32826419Y-23061291D01*
X32720471Y-22975035D01*
X32705387Y-22965945D01*
X32620681Y-22929990D01*
X32612380Y-22927131D01*
X32257836Y-22832131D01*
X32197213Y-22795179D01*
X32166192Y-22731318D01*
X32174620Y-22660824D01*
X32201352Y-22621329D01*
X32627276Y-22195405D01*
X32689588Y-22161379D01*
X32716371Y-22158500D01*
X34298134Y-22158500D01*
X34360316Y-22151745D01*
X34496705Y-22100615D01*
X34613261Y-22013261D01*
X34700615Y-21896705D01*
X34751745Y-21760316D01*
X34758500Y-21698134D01*
X34758500Y-19801866D01*
X34751745Y-19739684D01*
X34700615Y-19603295D01*
X34613261Y-19486739D01*
X34496705Y-19399385D01*
X34360316Y-19348255D01*
X34298134Y-19341500D01*
X30701866Y-19341500D01*
X30639684Y-19348255D01*
X30503295Y-19399385D01*
X30386739Y-19486739D01*
X30299385Y-19603295D01*
X30248255Y-19739684D01*
X30241500Y-19801866D01*
X30241500Y-21365500D01*
X30221498Y-21433621D01*
X30167842Y-21480114D01*
X30115500Y-21491500D01*
X29884500Y-21491500D01*
X29816379Y-21471498D01*
X29769886Y-21417842D01*
X29758500Y-21365500D01*
X29758500Y-19801866D01*
X29751745Y-19739684D01*
X29700615Y-19603295D01*
X29613261Y-19486739D01*
X29496705Y-19399385D01*
X29360316Y-19348255D01*
X29298134Y-19341500D01*
X28384500Y-19341500D01*
X28316379Y-19321498D01*
X28269886Y-19267842D01*
X28258500Y-19215500D01*
X28258500Y-19009500D01*
X28278502Y-18941379D01*
X28332158Y-18894886D01*
X28384500Y-18883500D01*
X28675400Y-18883500D01*
X28678646Y-18883163D01*
X28678650Y-18883163D01*
X28774308Y-18873238D01*
X28774312Y-18873237D01*
X28781166Y-18872526D01*
X28787702Y-18870345D01*
X28787704Y-18870345D01*
X28919806Y-18826272D01*
X28948946Y-18816550D01*
X29099348Y-18723478D01*
X29224305Y-18598303D01*
X29317115Y-18447738D01*
X29372797Y-18279861D01*
X29383500Y-18175400D01*
X30616500Y-18175400D01*
X30627474Y-18281166D01*
X30683450Y-18448946D01*
X30776522Y-18599348D01*
X30901697Y-18724305D01*
X30907927Y-18728145D01*
X30907928Y-18728146D01*
X31045090Y-18812694D01*
X31052262Y-18817115D01*
X31132005Y-18843564D01*
X31213611Y-18870632D01*
X31213613Y-18870632D01*
X31220139Y-18872797D01*
X31226975Y-18873497D01*
X31226978Y-18873498D01*
X31270031Y-18877909D01*
X31324600Y-18883500D01*
X33675400Y-18883500D01*
X33678646Y-18883163D01*
X33678650Y-18883163D01*
X33774308Y-18873238D01*
X33774312Y-18873237D01*
X33781166Y-18872526D01*
X33787702Y-18870345D01*
X33787704Y-18870345D01*
X33919806Y-18826272D01*
X33948946Y-18816550D01*
X34099348Y-18723478D01*
X34224305Y-18598303D01*
X34317115Y-18447738D01*
X34372797Y-18279861D01*
X34383500Y-18175400D01*
X34383500Y-15824600D01*
X34372526Y-15718834D01*
X34316550Y-15551054D01*
X34223478Y-15400652D01*
X34098303Y-15275695D01*
X34092072Y-15271854D01*
X33953968Y-15186725D01*
X33953966Y-15186724D01*
X33947738Y-15182885D01*
X33787254Y-15129655D01*
X33786389Y-15129368D01*
X33786387Y-15129368D01*
X33779861Y-15127203D01*
X33773025Y-15126503D01*
X33773022Y-15126502D01*
X33729969Y-15122091D01*
X33675400Y-15116500D01*
X31324600Y-15116500D01*
X31321354Y-15116837D01*
X31321350Y-15116837D01*
X31225692Y-15126762D01*
X31225688Y-15126763D01*
X31218834Y-15127474D01*
X31212298Y-15129655D01*
X31212296Y-15129655D01*
X31080194Y-15173728D01*
X31051054Y-15183450D01*
X30900652Y-15276522D01*
X30775695Y-15401697D01*
X30682885Y-15552262D01*
X30627203Y-15720139D01*
X30616500Y-15824600D01*
X30616500Y-18175400D01*
X29383500Y-18175400D01*
X29383500Y-15824600D01*
X29372526Y-15718834D01*
X29316550Y-15551054D01*
X29223478Y-15400652D01*
X29098303Y-15275695D01*
X29092072Y-15271854D01*
X28953968Y-15186725D01*
X28953966Y-15186724D01*
X28947738Y-15182885D01*
X28787254Y-15129655D01*
X28786389Y-15129368D01*
X28786387Y-15129368D01*
X28779861Y-15127203D01*
X28773025Y-15126503D01*
X28773022Y-15126502D01*
X28729969Y-15122091D01*
X28675400Y-15116500D01*
X26324600Y-15116500D01*
X26321354Y-15116837D01*
X26321350Y-15116837D01*
X26225692Y-15126762D01*
X26225688Y-15126763D01*
X26218834Y-15127474D01*
X26212298Y-15129655D01*
X26212296Y-15129655D01*
X26080194Y-15173728D01*
X26051054Y-15183450D01*
X25900652Y-15276522D01*
X25775695Y-15401697D01*
X25682885Y-15552262D01*
X25627203Y-15720139D01*
X25616500Y-15824600D01*
X25616500Y-18175400D01*
X25627474Y-18281166D01*
X25683450Y-18448946D01*
X25776522Y-18599348D01*
X25901697Y-18724305D01*
X25907927Y-18728145D01*
X25907928Y-18728146D01*
X26045090Y-18812694D01*
X26052262Y-18817115D01*
X26132005Y-18843564D01*
X26213611Y-18870632D01*
X26213613Y-18870632D01*
X26220139Y-18872797D01*
X26226975Y-18873497D01*
X26226978Y-18873498D01*
X26270031Y-18877909D01*
X26324600Y-18883500D01*
X26615500Y-18883500D01*
X26683621Y-18903502D01*
X26730114Y-18957158D01*
X26741500Y-19009500D01*
X26741500Y-19215500D01*
X26721498Y-19283621D01*
X26667842Y-19330114D01*
X26615500Y-19341500D01*
X25701866Y-19341500D01*
X25639684Y-19348255D01*
X25503295Y-19399385D01*
X25386739Y-19486739D01*
X25299385Y-19603295D01*
X25248255Y-19739684D01*
X25241500Y-19801866D01*
X25241500Y-21698134D01*
X25248255Y-21760316D01*
X25299385Y-21896705D01*
X25386739Y-22013261D01*
X25393919Y-22018642D01*
X25399210Y-22023933D01*
X25433236Y-22086245D01*
X25428171Y-22157060D01*
X25409342Y-22190682D01*
X24681115Y-23121194D01*
X22456859Y-25963298D01*
X22449539Y-25971836D01*
X22448558Y-25972882D01*
X22442970Y-25977602D01*
X22438618Y-25983481D01*
X22438614Y-25983485D01*
X22396830Y-26039928D01*
X22394784Y-26042615D01*
X22377642Y-26064518D01*
X22377634Y-26064530D01*
X22375379Y-26067411D01*
X22373467Y-26070544D01*
X22373120Y-26071112D01*
X22366843Y-26080435D01*
X22337732Y-26119758D01*
X22334848Y-26126482D01*
X22334845Y-26126488D01*
X22327817Y-26142876D01*
X22319568Y-26158855D01*
X22306467Y-26180320D01*
X22304192Y-26187282D01*
X22291270Y-26226824D01*
X22287305Y-26237342D01*
X22268020Y-26282311D01*
X22265504Y-26293200D01*
X22265184Y-26295121D01*
X22262826Y-26309267D01*
X22258309Y-26327685D01*
X22254219Y-26340202D01*
X22251527Y-26348441D01*
X22250915Y-26355731D01*
X22250915Y-26355732D01*
X22247118Y-26400975D01*
X22245845Y-26411151D01*
X22016067Y-27789820D01*
X22012960Y-27801374D01*
X22013328Y-27801466D01*
X22011560Y-27808565D01*
X22008978Y-27815420D01*
X22008043Y-27822684D01*
X21999690Y-27887551D01*
X21999008Y-27892173D01*
X21994538Y-27918994D01*
X21994359Y-27922644D01*
X21994101Y-27927885D01*
X21993221Y-27937787D01*
X21986390Y-27990843D01*
X21508500Y-27990843D01*
X21508500Y-22053250D01*
X21510246Y-22032345D01*
X21512770Y-22017344D01*
X21512770Y-22017341D01*
X21513576Y-22012552D01*
X21513729Y-22000000D01*
X21513040Y-21995188D01*
X21512723Y-21990327D01*
X21513008Y-21990308D01*
X21512607Y-21963549D01*
X21519234Y-21904736D01*
X21525513Y-21877229D01*
X21552485Y-21800147D01*
X21564727Y-21774726D01*
X21608178Y-21705574D01*
X21625770Y-21683515D01*
X21683515Y-21625770D01*
X21705574Y-21608178D01*
X21774726Y-21564727D01*
X21800147Y-21552485D01*
X21877229Y-21525513D01*
X21904735Y-21519234D01*
X21914904Y-21518088D01*
X21958554Y-21513170D01*
X21983360Y-21512888D01*
X21987448Y-21513576D01*
X21993456Y-21513649D01*
X21993724Y-21513691D01*
X21993993Y-21513656D01*
X22000000Y-21513729D01*
X22014790Y-21511611D01*
X22023643Y-21510662D01*
X22168224Y-21500321D01*
X22177213Y-21500000D01*
X23500000Y-21500000D01*
X23500000Y-20177212D01*
X23500321Y-20168225D01*
X23500881Y-20160396D01*
X23509459Y-20040465D01*
X23510884Y-20028554D01*
X23512769Y-20017352D01*
X23512770Y-20017345D01*
X23513576Y-20012552D01*
X23513653Y-20006276D01*
X23513670Y-20004860D01*
X23513670Y-20004857D01*
X23513729Y-20000000D01*
X23509773Y-19972376D01*
X23508500Y-19954514D01*
X23508500Y-14553250D01*
X23510246Y-14532345D01*
X23512770Y-14517344D01*
X23512770Y-14517341D01*
X23513576Y-14512552D01*
X23513729Y-14500000D01*
X23513040Y-14495188D01*
X23512723Y-14490327D01*
X23513008Y-14490308D01*
X23512607Y-14463549D01*
X23519234Y-14404736D01*
X23525513Y-14377229D01*
X23552485Y-14300147D01*
X23564727Y-14274726D01*
X23608178Y-14205574D01*
X23625770Y-14183515D01*
X23683515Y-14125770D01*
X23705574Y-14108178D01*
X23774726Y-14064727D01*
X23800147Y-14052485D01*
X23877228Y-14025513D01*
X23904736Y-14019234D01*
X23960226Y-14012982D01*
X23975868Y-14013077D01*
X23975879Y-14012200D01*
X23984851Y-14012310D01*
X23993724Y-14013691D01*
X24002626Y-14012527D01*
X24002628Y-14012527D01*
X24017951Y-14010523D01*
X24025286Y-14009564D01*
X24041621Y-14008500D01*
X35950633Y-14008500D01*
X35970018Y-14010000D01*
G37*
%TD.AperFunction*%
%TD*%
M02*
